<svg version="1.0" xmlns="http://www.w3.org/2000/svg"
 width="48" height="48" viewBox="0 0 510.000000 511.000000">

<g transform="translate(0.000000,511.000000) scale(0.100000,-0.100000)"
fill="currentColor" stroke="none">
<!-- <path d="M0 2555 c0 -1697 3 -2555 10 -2555 7 0 10 857 10 2550 l0 2550 2543
3 2542 2 -2552 3 -2553 2 0 -2555z"/> -->
<path d="M1725 4526 c-167 -55 -370 -183 -588 -371 -130 -111 -305 -337 -421
-542 -218 -388 -297 -942 -201 -1420 40 -197 82 -319 177 -508 198 -394 552
-741 976 -954 45 -23 82 -39 82 -36 0 3 -13 32 -29 63 -35 70 -94 235 -112
315 -11 52 -17 62 -58 90 -326 221 -489 511 -491 868 0 131 21 256 60 358 25
65 28 82 20 111 -28 97 -60 281 -71 402 -36 424 108 890 383 1233 24 30 48 56
53 58 6 3 10 -42 11 -122 1 -69 6 -159 13 -199 l11 -73 -49 -92 c-105 -196
-143 -360 -145 -612 0 -126 4 -192 17 -254 26 -129 24 -142 -33 -213 -65 -80
-122 -192 -156 -303 -26 -83 -28 -104 -28 -260 -1 -147 2 -181 22 -255 115
-421 465 -708 889 -727 96 -5 132 -3 171 10 48 16 52 16 123 -8 208 -71 403
-69 604 6 l53 20 64 -22 c54 -18 78 -21 168 -16 130 7 234 33 357 92 286 135
475 381 538 699 26 134 17 348 -19 471 -34 111 -90 221 -157 303 l-52 64 23
130 c20 113 22 153 17 311 -6 232 -23 303 -117 494 -63 128 -68 144 -60 175
40 136 54 402 25 458 -33 64 -77 65 -175 4 -121 -75 -225 -124 -265 -124 -21
0 -65 15 -106 36 -152 76 -352 128 -544 141 -170 11 -420 -32 -592 -102 -146
-60 -146 -60 -197 -41 -50 19 -256 152 -256 165 0 5 33 35 73 67 100 80 137
116 131 126 -9 14 -67 8 -139 -16z m490 -711 c93 -25 173 -73 256 -156 64 -63
86 -93 128 -179 38 -79 52 -99 57 -84 55 160 180 311 315 379 146 74 340 73
483 -3 116 -61 234 -217 270 -358 25 -99 21 -240 -10 -332 -30 -91 -99 -199
-160 -250 -66 -55 -161 -110 -224 -129 -30 -9 -59 -20 -63 -23 -4 -4 22 -22
59 -40 93 -46 193 -146 225 -226 65 -167 -11 -516 -156 -710 -42 -55 -116
-134 -126 -134 -3 0 -26 16 -50 35 -51 40 -126 71 -197 81 -41 5 -57 14 -93
51 -56 58 -109 88 -189 109 -36 9 -66 17 -68 19 -7 6 21 203 33 232 26 61 173
243 198 243 5 0 -11 -22 -35 -48 -62 -66 -121 -156 -116 -179 11 -59 178 6
271 107 63 68 122 178 139 261 16 80 11 89 -60 89 -272 0 -429 -143 -461 -420
-5 -41 -9 -63 -10 -49 -1 35 -45 149 -84 222 -49 94 -140 160 -257 187 -60 14
-174 19 -185 8 -4 -4 -2 -28 4 -53 30 -118 114 -236 200 -279 65 -34 147 -56
202 -56 52 0 61 -7 79 -64 12 -36 17 -192 7 -202 -2 -2 -30 -11 -61 -19 -81
-21 -132 -50 -187 -105 -40 -40 -56 -49 -98 -55 -58 -8 -152 -50 -199 -90
l-33 -28 -31 29 c-79 75 -170 219 -208 330 -71 206 -84 362 -40 479 31 82 138
189 233 234 61 29 79 51 41 51 -24 0 -135 50 -193 87 -175 112 -283 323 -267
521 20 251 178 452 406 517 63 18 185 18 255 0z" fill="currentColor"/>
<path d="M2020 3337 c-64 -18 -117 -53 -151 -100 -34 -47 -37 -72 -10 -87 33
-17 50 -12 94 30 50 46 83 60 138 60 50 0 97 -20 129 -55 32 -35 66 -48 91
-35 31 17 23 56 -21 104 -68 73 -180 108 -270 83z" fill="currentColor"/>
<path d="M3161 3339 c-65 -13 -126 -46 -165 -90 -39 -43 -45 -69 -20 -94 20
-20 49 -12 89 25 44 41 88 60 140 60 53 0 84 -14 144 -64 45 -38 69 -44 89
-24 22 22 13 55 -28 101 -65 74 -156 105 -249 86z" fill="currentColor"/>
<path d="M2585 3166 c-43 -19 -81 -64 -95 -112 -16 -53 1 -106 64 -208 52 -83
79 -111 100 -103 41 16 156 216 156 272 0 52 -40 116 -90 142 -49 26 -91 29
-135 9z" fill="currentColor"/>
<path d="M4613 2543 c-78 -230 -194 -435 -339 -598 -35 -39 -56 -72 -60 -95
-31 -180 -119 -358 -245 -496 -59 -65 -157 -152 -218 -193 -56 -39 -57 -39
-75 -117 -10 -44 -33 -121 -51 -172 -17 -50 -28 -92 -24 -92 21 0 256 168 340
243 401 357 633 797 695 1312 19 162 19 225 -1 225 -9 0 -18 -8 -22 -17z" fill="currentColor"/>
<path d="M1690 1061 c0 -62 68 -223 147 -345 l44 -69 -24 -26 c-57 -61 -64
-126 -18 -172 62 -61 133 -26 145 72 11 86 26 95 26 16 0 -59 3 -71 25 -92 26
-27 63 -32 97 -14 27 14 48 68 49 126 2 47 2 47 10 -15 9 -75 27 -107 65 -116
76 -19 121 53 91 145 -12 38 -12 48 -2 39 7 -6 18 -24 25 -40 6 -16 19 -32 28
-36 26 -10 340 -17 426 -9 l76 7 20 41 c15 33 18 36 12 12 -23 -98 7 -160 78
-160 61 0 82 28 90 117 5 55 7 62 9 28 3 -108 39 -158 105 -146 49 9 60 29 66
115 l5 76 14 -74 c20 -110 61 -142 131 -106 55 28 60 122 9 176 l-28 30 43 67
c78 120 125 228 141 325 3 20 2 37 -3 37 -24 0 -226 -73 -302 -108 -118 -56
-243 -98 -363 -123 -82 -18 -136 -22 -272 -22 -245 0 -395 34 -640 146 -94 43
-294 116 -317 117 -5 0 -8 -9 -8 -19z" fill="currentColor"/>
</g>
</svg>
